<?xml version="1.0" encoding="UTF-8" standalone="no"?>
<svg
   xmlns:dc="http://purl.org/dc/elements/1.1/"
   xmlns:cc="http://creativecommons.org/ns#"
   xmlns:rdf="http://www.w3.org/1999/02/22-rdf-syntax-ns#"
   xmlns:svg="http://www.w3.org/2000/svg"
   xmlns="http://www.w3.org/2000/svg"
   xmlns:sodipodi="http://sodipodi.sourceforge.net/DTD/sodipodi-0.dtd"
   xmlns:inkscape="http://www.inkscape.org/namespaces/inkscape"
   aria-hidden="true"
   focusable="false"
   data-prefix="fas"
   data-icon="file-code"
   class="svg-inline--fa fa-file-code fa-w-12"
   role="img"
   viewBox="0 0 384 512"
   version="1.1"
   id="svg4"
   sodipodi:docname="file-code-solid.svg"
   inkscape:version="0.92.4 5da689c313, 2019-01-14">
  <metadata
     id="metadata10">
    <rdf:RDF>
      <cc:Work
         rdf:about="">
        <dc:format>image/svg+xml</dc:format>
        <dc:type
           rdf:resource="http://purl.org/dc/dcmitype/StillImage" />
      </cc:Work>
    </rdf:RDF>
  </metadata>
  <defs
     id="defs8" />
  <sodipodi:namedview
     pagecolor="#ffffff"
     bordercolor="#666666"
     borderopacity="1"
     objecttolerance="10"
     gridtolerance="10"
     guidetolerance="10"
     inkscape:pageopacity="0"
     inkscape:pageshadow="2"
     inkscape:window-width="741"
     inkscape:window-height="480"
     id="namedview6"
     showgrid="false"
     inkscape:zoom="0.4609375"
     inkscape:cx="192"
     inkscape:cy="256"
     inkscape:window-x="0"
     inkscape:window-y="30"
     inkscape:window-maximized="0"
     inkscape:current-layer="svg4" />
  <path
     fill="currentColor"
     d="M384 121.941V128H256V0h6.059c6.365 0 12.47 2.529 16.971 7.029l97.941 97.941A24.005 24.005 0 0 1 384 121.941zM248 160c-13.2 0-24-10.8-24-24V0H24C10.745 0 0 10.745 0 24v464c0 13.255 10.745 24 24 24h336c13.255 0 24-10.745 24-24V160H248zM123.206 400.505a5.4 5.4 0 0 1-7.633.246l-64.866-60.812a5.4 5.4 0 0 1 0-7.879l64.866-60.812a5.4 5.4 0 0 1 7.633.246l19.579 20.885a5.4 5.4 0 0 1-.372 7.747L101.65 336l40.763 35.874a5.4 5.4 0 0 1 .372 7.747l-19.579 20.884zm51.295 50.479l-27.453-7.97a5.402 5.402 0 0 1-3.681-6.692l61.44-211.626a5.402 5.402 0 0 1 6.692-3.681l27.452 7.97a5.4 5.4 0 0 1 3.68 6.692l-61.44 211.626a5.397 5.397 0 0 1-6.69 3.681zm160.792-111.045l-64.866 60.812a5.4 5.4 0 0 1-7.633-.246l-19.58-20.885a5.4 5.4 0 0 1 .372-7.747L284.35 336l-40.763-35.874a5.4 5.4 0 0 1-.372-7.747l19.58-20.885a5.4 5.4 0 0 1 7.633-.246l64.866 60.812a5.4 5.4 0 0 1-.001 7.879z"
     id="path2"
     style="fill:#ffffff" />
</svg>
