<?xml version="1.0" standalone="no"?>
<!DOCTYPE svg PUBLIC "-//W3C//DTD SVG 20010904//EN"
 "http://www.w3.org/TR/2001/REC-SVG-20010904/DTD/svg10.dtd">
<svg version="1.0" xmlns="http://www.w3.org/2000/svg"
 width="654.000000pt" height="654.000000pt" viewBox="0 0 654.000000 654.000000"
 preserveAspectRatio="xMidYMid meet">
<metadata>
Created by potrace 1.11, written by Peter Selinger 2001-2013
</metadata>
<g transform="translate(0.000000,654.000000) scale(0.100000,-0.100000)"
fill="#000000" stroke="none">
<path d="M3059 6536 c-2 -2 -41 -7 -85 -10 -45 -4 -93 -9 -105 -11 -13 -2 -46
-6 -74 -10 -188 -23 -479 -99 -695 -182 -768 -294 -1393 -865 -1764 -1610
-107 -215 -217 -526 -261 -739 -20 -95 -55 -324 -62 -400 -10 -114 -10 -495 0
-599 83 -876 489 -1647 1172 -2223 55 -46 111 -92 125 -100 14 -9 57 -40 97
-69 40 -29 75 -53 78 -53 3 0 32 -18 64 -39 82 -56 347 -192 476 -244 308
-125 609 -200 945 -234 150 -15 584 -8 700 11 14 3 45 7 70 10 212 28 549 117
751 201 542 223 1006 575 1361 1030 248 318 462 738 559 1095 11 41 27 99 35
127 7 29 16 67 19 85 3 18 8 40 10 48 2 8 7 31 10 50 3 19 10 60 15 90 26 151
35 286 34 505 0 185 -7 343 -19 412 -3 15 -7 42 -9 58 -5 33 -23 144 -32 190
-26 141 -105 402 -176 580 -91 229 -284 568 -423 743 -265 335 -554 598 -879
799 -407 252 -896 424 -1331 468 -38 4 -79 10 -90 12 -23 6 -511 13 -516 9z"/>
</g>
</svg>
